<?xml version="1.0" encoding="utf-8"?>
<!-- Generator: Adobe Illustrator 22.1.0, SVG Export Plug-In . SVG Version: 6.00 Build 0)  -->
<svg version="1.1" id="Layer_2" xmlns="http://www.w3.org/2000/svg" xmlns:xlink="http://www.w3.org/1999/xlink" x="0px" y="0px"
	 viewBox="0 0 595.3 841.9" style="enable-background:new 0 0 595.3 841.9;" xml:space="preserve">
<style type="text/css">
	.st0{fill:#383838;}
	.st1{fill:#FFFFFF;}
	.st2{fill:#B2E0E3;}
	.st3{fill:#CCEBF1;}
	.st4{fill:none;stroke:#000000;stroke-width:0.2797;stroke-miterlimit:10;}
	.st5{fill:none;stroke:#000000;stroke-width:0.559;stroke-linecap:round;stroke-miterlimit:10;}
	.st6{fill:none;stroke:#000000;stroke-width:0.5593;stroke-miterlimit:10;}
</style>
<g id="XMLID_1_">
	<g>
		<path class="st0" d="M111.9,435.7c0,4.6-3.7,8.3-8.3,8.3c-4.6,0-8.3-3.7-8.3-8.3c0-2.1,0.8-4.1,2.1-5.5c1.5-1.7,3.7-2.7,6.1-2.7
			c2.4,0,4.6,1.1,6.1,2.7C111.2,431.6,111.9,433.5,111.9,435.7z"/>
		<path class="st1" d="M113.6,408.8c0.6,0,1.1-0.5,1.1-1.1v-7c0-0.6-0.5-1.1-1.1-1.1h-13.3h-3l-6,9.2c0.1,0,0.2,0,0.3,0h3.8H113.6z
			 M167.6,395.9c4.7,0.4,8.6,0.3,11.8,1.5l-0.6,2.2h-11.7c-0.5,0-0.8,0.4-0.8,0.8h-2.6c0-0.5-0.4-0.8-0.8-0.8h-11.7
			c-0.5,0-0.8,0.4-0.8,0.8h-2.6c0-0.5-0.4-0.8-0.8-0.8h-11.7c-0.5,0-0.8,0.4-0.8,0.8h-2.8c0-0.5-0.4-0.8-0.8-0.8H119
			c-0.5,0-0.8,0.4-0.8,0.8v7.5c0,0.5,0.4,0.8,0.8,0.8h11.7c0.5,0,0.8-0.4,0.8-0.8h2.8c0,0.5,0.4,0.8,0.8,0.8h11.7
			c0.5,0,0.8-0.4,0.8-0.8h2.6c0,0.5,0.4,0.8,0.8,0.8h11.7c0.5,0,0.8-0.4,0.8-0.8h2.6c0,0.5,0.4,0.8,0.8,0.8h11.7v2.9h-75.3
			c0,0-10.5,0-13.5,1.1c-3.1,1.1-3.7,4.4-3.7,4.4h-0.2c0,0,0,0,0,0c0,0,0,0,0,0c0.8-5.3,2.3-9.9,4.4-13.5c0.9-1.5,1.9-2.8,3-3.9
			c2-2,4.5-3.3,7.4-3.6C112.2,394.5,160.4,395.4,167.6,395.9z"/>
		<path class="st2" d="M186.7,411.7c0.8,6.3,1.1,13.7,1.3,18.6c-0.3-0.1-0.7-0.2-1-0.2h-12.1c-1.5-1.7-3.7-2.7-6.1-2.7
			c-2.4,0-4.6,1.1-6.1,2.7h-52.7c-1.5-1.7-3.7-2.7-6.1-2.7c-2.4,0-4.6,1.1-6.1,2.7H85.2v-0.6c0-4.3,0.3-8.5,0.9-12.4h0.2
			c0,0,0.6-3.3,3.7-4.4c3.1-1.1,13.5-1.1,13.5-1.1h75.3h7.7L186.7,411.7z M130.3,417.6c0-0.2-0.2-0.4-0.4-0.4h-4
			c-0.2,0-0.4,0.2-0.4,0.4c0,0.2,0.2,0.4,0.4,0.4h4C130.1,418,130.3,417.8,130.3,417.6z M115.3,417.6c0-0.2-0.2-0.4-0.4-0.4h-4
			c-0.2,0-0.4,0.2-0.4,0.4c0,0.2,0.2,0.4,0.4,0.4h4C115.1,418,115.3,417.8,115.3,417.6z"/>
		<path class="st0" d="M174.8,430.1c1.3,1.5,2.1,3.4,2.1,5.5c0,4.6-3.7,8.3-8.3,8.3c-4.6,0-8.3-3.7-8.3-8.3c0-2.1,0.8-4.1,2.1-5.5
			c1.5-1.7,3.7-2.7,6.1-2.7C171.1,427.4,173.3,428.5,174.8,430.1z"/>
		<path class="st1" d="M186.6,411.4c0,0.1,0,0.2,0,0.3l-0.2,0h-7.7v-2.9c0.5,0,0.8-0.4,0.8-0.8v-7.5c0-0.5-0.4-0.8-0.8-0.8l0.6-2.2
			c1.7,0.6,3.2,1.5,4.4,3C185.1,401.8,186,406.2,186.6,411.4z"/>
		<path class="st1" d="M189.7,432.9c0,0.8-0.3,1.5-0.8,2c-0.2,0.2-0.5,0.4-0.8,0.5c-0.4,0.2-0.8,0.3-1.2,0.3h-10
			c0-2.1-0.8-4.1-2.1-5.5H187c0.4,0,0.7,0.1,1,0.2C189,430.7,189.7,431.7,189.7,432.9z"/>
		<rect x="147.8" y="400.4" class="st1" width="2.6" height="7.5"/>
		<rect x="131.5" y="400.4" class="st1" width="2.8" height="7.5"/>
		<rect x="163.7" y="400.4" class="st1" width="2.6" height="7.5"/>
		<path class="st1" d="M85.2,430.1h12.3c-1.3,1.5-2.1,3.4-2.1,5.5H84.3c-1.5,0-2.8-1.2-2.8-2.8c0-0.8,0.3-1.4,0.8-2
			c0.5-0.5,1.2-0.8,2-0.8H85.2z"/>
		<path class="st1" d="M109.8,430.1h52.7c-1.3,1.5-2.1,3.4-2.1,5.5h-48.5C111.9,433.5,111.2,431.6,109.8,430.1z"/>
		<path class="st3" d="M179.6,400.4v7.5c0,0.5-0.4,0.8-0.8,0.8h-11.7c-0.5,0-0.8-0.4-0.8-0.8v-7.5c0-0.5,0.4-0.8,0.8-0.8h11.7
			C179.2,399.6,179.6,400,179.6,400.4z"/>
		<path class="st3" d="M163.7,400.4v7.5c0,0.5-0.4,0.8-0.8,0.8h-11.7c-0.5,0-0.8-0.4-0.8-0.8v-7.5c0-0.5,0.4-0.8,0.8-0.8h11.7
			C163.3,399.6,163.7,400,163.7,400.4z"/>
		<path class="st3" d="M147.8,400.4v7.5c0,0.5-0.4,0.8-0.8,0.8h-11.7c-0.5,0-0.8-0.4-0.8-0.8v-7.5c0-0.5,0.4-0.8,0.8-0.8h11.7
			C147.4,399.6,147.8,400,147.8,400.4z"/>
		<path class="st3" d="M131.5,400.4v7.5c0,0.5-0.4,0.8-0.8,0.8H119c-0.5,0-0.8-0.4-0.8-0.8v-7.5c0-0.5,0.4-0.8,0.8-0.8h11.7
			C131.1,399.6,131.5,400,131.5,400.4z"/>
		<path class="st3" d="M114.8,400.7v7c0,0.6-0.5,1.1-1.1,1.1H95.4l4.9-9.2h13.3C114.2,399.6,114.8,400.1,114.8,400.7z"/>
		<path class="st3" d="M100.4,399.6l-4.9,9.2h-3.8c-0.1,0-0.2,0-0.3,0l6-9.2H100.4z"/>
	</g>
	<g>
		<path class="st4" d="M97.6,430.1c1.5-1.7,3.7-2.7,6.1-2.7c2.4,0,4.6,1.1,6.1,2.7"/>
		<path class="st4" d="M95.4,435.7c0,4.6,3.7,8.3,8.3,8.3c4.6,0,8.3-3.7,8.3-8.3"/>
		<path class="st4" d="M176.9,435.7c0,4.6-3.7,8.3-8.3,8.3c-4.6,0-8.3-3.7-8.3-8.3c0-2.1,0.8-4.1,2.1-5.5c1.5-1.7,3.7-2.7,6.1-2.7
			c2.4,0,4.6,1.1,6.1,2.7C176.1,431.6,176.9,433.5,176.9,435.7z"/>
		<path class="st4" d="M85.2,430.1v-0.6c0-4.3,0.3-8.5,0.9-12.4c0,0,0,0,0,0c0,0,0,0,0,0c0.8-5.3,2.3-9.9,4.4-13.5
			c0.9-1.5,1.9-2.8,3-3.9c2-2,4.5-3.3,7.4-3.6c11.3-1.4,59.5-0.5,66.7,0c4.7,0.4,8.6,0.3,11.8,1.5c1.7,0.6,3.2,1.5,4.4,3
			c1.2,1.4,2.1,5.8,2.8,11c0,0.1,0,0.2,0,0.3c0.8,6.3,1.1,13.7,1.3,18.6"/>
		<path class="st4" d="M188.1,435.4c0,0.2,0,0.3,0,0.3H187"/>
		<path class="st5" d="M186.5,411.7h-7.7h-75.3c0,0-10.5,0-13.5,1.1c-3.1,1.1-3.7,4.4-3.7,4.4"/>
		<path class="st4" d="M97.6,430.1c-1.3,1.5-2.1,3.4-2.1,5.5H84.3c-1.5,0-2.8-1.2-2.8-2.8c0-0.8,0.3-1.4,0.8-2
			c0.5-0.5,1.2-0.8,2-0.8h0.9H97.6z"/>
		<path class="st4" d="M162.5,430.1h-52.7c1.3,1.5,2.1,3.4,2.1,5.5h48.5"/>
		<path class="st4" d="M176.9,435.7h10c0.4,0,0.8-0.1,1.2-0.3c0.3-0.1,0.6-0.3,0.8-0.5c0.5-0.5,0.8-1.2,0.8-2c0-1.2-0.7-2.2-1.7-2.6
			c-0.3-0.1-0.7-0.2-1-0.2h-12.1"/>
		<path class="st4" d="M110.9,418h4c0.2,0,0.4-0.2,0.4-0.4c0-0.2-0.2-0.4-0.4-0.4h-4c-0.2,0-0.4,0.2-0.4,0.4
			C110.4,417.8,110.6,418,110.9,418z"/>
		<path class="st4" d="M125.8,418h4c0.2,0,0.4-0.2,0.4-0.4c0-0.2-0.2-0.4-0.4-0.4h-4c-0.2,0-0.4,0.2-0.4,0.4
			C125.4,417.8,125.6,418,125.8,418z"/>
		<path class="st4" d="M131.5,408c0,0.5-0.4,0.8-0.8,0.8H119c-0.5,0-0.8-0.4-0.8-0.8v-7.5c0-0.5,0.4-0.8,0.8-0.8h11.7
			c0.5,0,0.8,0.4,0.8,0.8V408z"/>
		<path class="st4" d="M147.8,408c0,0.5-0.4,0.8-0.8,0.8h-11.7c-0.5,0-0.8-0.4-0.8-0.8v-7.5c0-0.5,0.4-0.8,0.8-0.8h11.7
			c0.5,0,0.8,0.4,0.8,0.8V408z"/>
		<path class="st4" d="M163.7,408c0,0.5-0.4,0.8-0.8,0.8h-11.7c-0.5,0-0.8-0.4-0.8-0.8v-7.5c0-0.5,0.4-0.8,0.8-0.8h11.7
			c0.5,0,0.8,0.4,0.8,0.8V408z"/>
		<path class="st4" d="M178.8,408.8h-11.7c-0.5,0-0.8-0.4-0.8-0.8v-7.5c0-0.5,0.4-0.8,0.8-0.8h11.7c0.5,0,0.8,0.4,0.8,0.8v7.5
			C179.6,408.4,179.2,408.8,178.8,408.8z"/>
		<path class="st4" d="M91.4,408.8c0.1,0,0.2,0,0.3,0h3.8h18.2c0.6,0,1.1-0.5,1.1-1.1v-7c0-0.6-0.5-1.1-1.1-1.1h-13.3h-3"/>
		<line class="st4" x1="97.3" y1="399.6" x2="91.4" y2="408.8"/>
		<line class="st6" x1="100.4" y1="399.6" x2="95.4" y2="408.8"/>
	</g>
</g>
</svg>
