<?xml version="1.0" encoding="utf-8"?>
<!-- Generator: Adobe Illustrator 22.1.0, SVG Export Plug-In . SVG Version: 6.00 Build 0)  -->
<svg version="1.1" id="Layer_1" xmlns="http://www.w3.org/2000/svg" xmlns:xlink="http://www.w3.org/1999/xlink" x="0px" y="0px"
	 viewBox="0 0 1280 1024" style="enable-background:new 0 0 1280 1024;" xml:space="preserve">
<style type="text/css">
	.st0{fill:#D6D6D6;}
	.st1{fill:#E3F8FF;}
	.st2{fill:#FFFEE1;}
	.st3{fill:#FFFFB6;}
	.st4{fill:#263D43;}
	.st5{fill:#FFFFFF;}
	.st6{fill:#ACEFED;}
	.st7{fill:none;stroke:#000000;stroke-miterlimit:10;}
	.st8{fill:none;stroke:#000000;stroke-width:0.9486;stroke-miterlimit:10;}
	.st9{font-family:'ArialNarrow-Bold';}
	.st10{font-size:10px;}
</style>
<g id="XMLID_1_">
	<g>
		<path class="st0" d="M428.2,418.8c0,2.4-1,4.6-2.3,6.2s-3,2.6-4.4,2.6h-7.2h-22.5h-29.3v-2.4c1.9,0,3.5-1.6,3.5-3.5V416
			c0-1.9-1.6-3.5-3.5-3.5V410h57.1C424.3,410,428.2,413.9,428.2,418.8z"/>
		<path class="st0" d="M244.9,410h117.4v2.5h-0.2H305h-0.2c-1.9,0-3.5,1.6-3.5,3.5v5.5c0,1.9,1.6,3.5,3.5,3.5h0.2h57.3h0.2v2.4
			h-85.2h-22.5h-7.8c-6.8,0-10.8-3.9-10.8-8.8c0-2.4,1-4.6,2.6-6.2C240.4,411,242.5,410,244.9,410z"/>
		<path class="st1" d="M320.7,262.6c6.3,0,8.8,2.3,8.8,8.3v29.4c0,6.8-1.7,6.9-6.7,6.7c-5-0.2-43.8,1.1-58.3,0
			c-1.9-0.2-5.6-0.9-4.3-6.3c1.6-7.1,5-21.3,7-28.3c0.9-3.2,2.1-8.4,6.8-9.3C280.8,261.6,311.3,262.6,320.7,262.6z"/>
		<path class="st1" d="M404.3,300.6c1.2,5.4-2.4,6.2-4.3,6.3c-14.5,1.1-53.3-0.2-58.3,0c-5,0.2-6.7,0.1-6.7-6.7v-29.4
			c0-6,2.5-8.3,8.8-8.3c9.5,0,40-1,46.8,0.4c4.7,0.9,5.9,6,6.8,9.3C399.3,279.3,402.7,293.5,404.3,300.6z"/>
		<circle class="st2" cx="271.9" cy="370.2" r="15.8"/>
		<circle class="st2" cx="393.9" cy="370.2" r="15.8"/>
		<path class="st3" d="M404.6,335.7c3.8,0,6.9,3.1,6.9,6.9c0,3.8-3.1,6.9-6.9,6.9c-3.8,0-6.9-3.1-6.9-6.9
			C397.7,338.7,400.8,335.7,404.6,335.7z"/>
		<path class="st3" d="M260.6,349.4c-3.8,0-6.9-3.1-6.9-6.9c0-3.8,3.1-6.9,6.9-6.9c3.8,0,6.9,3.1,6.9,6.9
			C267.4,346.3,264.4,349.4,260.6,349.4z"/>
		<path class="st4" d="M277.2,427.5v21.3c0,2.6-2.1,4.7-4.7,4.7h-13.1c-2.6,0-4.7-2.1-4.7-4.7v-21.3H277.2z"/>
		<path class="st4" d="M414.2,427.5v21.3c0,2.6-2.1,4.7-4.7,4.7h-13.1c-2.6,0-4.7-2.1-4.7-4.7v-21.3H414.2z"/>
		<path class="st0" d="M348.3,335.7c0.9,1.6,1.6,3.4,1.9,5.3l-0.2,0c0,0-8.7,13.4-8.7,18.5c-1,0.5-2,1-3,1.3l-0.2-0.6l-5.9-11.7
			l-6,11.7c-1-0.4-1.9-0.9-2.8-1.5c-0.6-4.2-7.5-15.8-7.8-16.2c0.2-2.3,0.9-4.5,1.9-6.4l7.9,17.1l4.5-9.1l-7.1-14.1
			c1-0.8,2.2-1.4,3.4-1.9l6.1,11.2l5.8-11.8c1.4,0.4,2.8,1.1,4.1,1.9l-7.5,14.4l4.8,8.8C339.5,348,348.3,335.7,348.3,335.7z"/>
		<path class="st0" d="M315.5,344.1c0,6.1,3.1,11.5,7.9,14.6c0.9,0.6,1.8,1.1,2.8,1.5c2.1,0.9,4.4,1.4,6.9,1.4
			c1.8,0,3.6-0.3,5.3-0.8c1.1-0.3,2.1-0.8,3-1.3c5.5-3,9.2-8.7,9.2-15.4c0-1.1-0.1-2.1-0.3-3.2c-0.3-1.9-1-3.7-1.9-5.3
			c-1.5-2.6-3.6-4.8-6.1-6.4c-1.3-0.8-2.6-1.4-4.1-1.9c-1.6-0.5-3.3-0.8-5.1-0.8c-2.4,0-4.8,0.5-6.9,1.4c-1.2,0.5-2.4,1.2-3.4,1.9
			c-2.2,1.6-4,3.7-5.3,6.1c-1,2-1.7,4.1-1.9,6.4C315.5,343.1,315.5,343.6,315.5,344.1z M354.7,344.1c0,12-9.7,21.7-21.7,21.7
			s-21.7-9.7-21.7-21.7c0-11.4,8.7-20.7,19.8-21.6h3.9C346,323.5,354.7,332.8,354.7,344.1z"/>
		<path class="st5" d="M311.2,344.1c0,12,9.7,21.7,21.7,21.7s21.7-9.7,21.7-21.7c0-11.3-8.7-20.7-19.8-21.6
			c-0.6-0.1-1.3-0.1-1.9-0.1c-0.7,0-1.3,0-1.9,0.1C319.9,323.5,311.2,332.8,311.2,344.1z M341.7,306.9c5-0.2,43.8,1.1,58.3,0
			c1.9-0.2,5.6-0.9,4.3-6.3c-1.6-7.1-5-21.3-6.9-28.3c-0.9-3.2-2.1-8.4-6.8-9.3c-6.8-1.3-37.3-0.4-46.8-0.4c-6.3,0-8.8,2.3-8.8,8.3
			v29.4C335,307,336.7,307.1,341.7,306.9z M264.6,306.9c14.5,1.1,53.3-0.2,58.3,0c5,0.2,6.7,0.1,6.7-6.7v-29.4c0-6-2.5-8.3-8.8-8.3
			c-9.5,0-39.9-1-46.8,0.4c-4.7,0.9-5.9,6-6.8,9.3c-1.9,7-5.4,21.2-7,28.3C259,306,262.7,306.7,264.6,306.9z M422.6,324.2l-3.3,0.6
			c-56.8,14-81.9,77.7-81.9,77.7c-2.2,4.4-8.5,4.4-10.6,0c0,0-24.8-63.8-80.8-77.8l-3.5-0.6V312l5.9-7.5c7.3-9.5,12.5-37,12.5-37
			l-1.5-2.5l16-9.5c13.2-8.8,55.3-8.3,57.1-8.2c0,0,0,0,0.1,0c1.8,0,43.9-0.5,57.1,8.2l16,9.5l-1.5,2.5c0,0,5.2,27.5,12.5,37
			l5.9,7.5v10.5h0.1L422.6,324.2L422.6,324.2z"/>
		<path class="st6" d="M253.7,342.5c0,3.8,3.1,6.9,6.9,6.9c3.8,0,6.9-3.1,6.9-6.9c0-3.8-3.1-6.9-6.9-6.9
			C256.8,335.7,253.7,338.7,253.7,342.5z M378.1,370.2c0,8.7,7.1,15.8,15.8,15.8c8.7,0,15.8-7,15.8-15.8s-7-15.8-15.8-15.8
			C385.2,354.4,378.1,361.5,378.1,370.2z M404.6,349.4c3.8,0,6.9-3.1,6.9-6.9c0-3.8-3.1-6.9-6.9-6.9c-3.8,0-6.9,3.1-6.9,6.9
			C397.7,346.3,400.8,349.4,404.6,349.4z M271.9,385.9c8.7,0,15.8-7,15.8-15.8s-7-15.8-15.8-15.8c-8.7,0-15.8,7-15.8,15.8
			S263.2,385.9,271.9,385.9z M422.7,324.2v85.7H242.6v-85.7l3.5,0.6c56,14,80.8,77.8,80.8,77.8c2.1,4.4,8.5,4.3,10.6,0
			c0,0,25.1-63.7,81.9-77.7L422.7,324.2L422.7,324.2z"/>
	</g>
	<g>
		<path class="st7" d="M422.7,324.2v-1.7h-0.1V312l-5.9-7.5c-7.3-9.5-12.5-37-12.5-37l1.5-2.5l-16-9.5c-13.2-8.8-55.3-8.3-57.1-8.2
			c0,0-0.1,0-0.1,0c-1.8,0-43.9-0.5-57.1,8.2l-16,9.5l1.5,2.5c0,0-5.2,27.5-12.5,37l-5.9,7.5v12.2v85.7h180.1V324.2z"/>
		<polyline class="st7" points="277.2,427.5 362.4,427.5 391.7,427.5 		"/>
		<path class="st7" d="M414.2,427.5h7.2c1.4,0,3.1-1,4.4-2.6s2.3-3.8,2.3-6.2c0-4.8-3.9-8.8-8.8-8.8h-57.1H244.9
			c-2.4,0-4.6,1-6.2,2.6c-1.6,1.6-2.6,3.8-2.6,6.2c0,4.8,3.9,8.8,10.8,8.8h7.8"/>
		<path class="st8" d="M305,425.1h-0.2c-1.9,0-3.5-1.6-3.5-3.5V416c0-1.9,1.6-3.5,3.5-3.5h0.2"/>
		<path class="st8" d="M362.2,412.5c1.9,0,3.5,1.6,3.5,3.5v5.5c0,1.9-1.6,3.5-3.5,3.5"/>
		<path class="st7" d="M277.2,427.5v21.3c0,2.6-2.1,4.7-4.7,4.7h-13.1c-2.6,0-4.7-2.1-4.7-4.7v-21.3H277.2z"/>
		<path class="st7" d="M335,270.9c0-6,2.5-8.3,8.8-8.3c9.5,0,40-1,46.8,0.4c4.7,0.9,5.9,6,6.8,9.3c1.9,7,5.3,21.2,6.9,28.3
			c1.2,5.4-2.4,6.2-4.3,6.3c-14.5,1.1-53.3-0.2-58.3,0c-5,0.2-6.7,0.1-6.7-6.7V270.9z"/>
		<path class="st8" d="M362.4,412.5c1.9,0,3.5,1.6,3.5,3.5v5.5c0,1.9-1.6,3.5-3.5,3.5h-0.2H305c-1.9,0-3.5-1.6-3.5-3.5V416
			c0-1.9,1.6-3.5,3.5-3.5h57.3H362.4z"/>
		<circle class="st7" cx="271.9" cy="370.2" r="15.8"/>
		<circle class="st7" cx="393.9" cy="370.2" r="15.8"/>
		<path class="st7" d="M267.4,342.5c0,3.8-3.1,6.9-6.9,6.9c-3.8,0-6.9-3.1-6.9-6.9c0-3.8,3.1-6.9,6.9-6.9
			C264.4,335.7,267.4,338.7,267.4,342.5z"/>
		<path class="st7" d="M411.4,342.5c0,3.8-3.1,6.9-6.9,6.9c-3.8,0-6.9-3.1-6.9-6.9c0-3.8,3.1-6.9,6.9-6.9
			C408.4,335.7,411.4,338.7,411.4,342.5z"/>
		<path class="st7" d="M422.6,324.2l-3.3,0.6c-56.8,14-81.9,77.7-81.9,77.7c-2.2,4.4-8.5,4.4-10.6,0c0,0-24.8-63.8-80.8-77.8
			l-3.5-0.6"/>
		<path class="st7" d="M414.2,427.5v21.3c0,2.6-2.1,4.7-4.7,4.7h-13.1c-2.6,0-4.7-2.1-4.7-4.7v-21.3H414.2z"/>
		<path class="st7" d="M260.2,300.6c1.6-7.1,5-21.3,7-28.3c0.9-3.2,2.1-8.4,6.8-9.3c6.8-1.3,37.3-0.4,46.8-0.4
			c6.3,0,8.8,2.3,8.8,8.3v29.4c0,6.8-1.7,6.9-6.7,6.7c-5-0.2-43.8,1.1-58.3,0C262.7,306.7,259,306,260.2,300.6z"/>
		<path class="st7" d="M341.3,359.5c0-5.1,8.7-18.5,8.7-18.5"/>
		<line class="st7" x1="326.1" y1="328" x2="326.1" y2="328"/>
		<line class="st7" x1="338.1" y1="327.4" x2="338.1" y2="327.4"/>
		<path class="st7" d="M315.5,342.5C315.5,342.5,315.5,342.5,315.5,342.5"/>
		<line class="st7" x1="326.1" y1="360.2" x2="326.1" y2="360.2"/>
		<line class="st7" x1="322.7" y1="330" x2="322.3" y2="329.3"/>
		<path class="st7" d="M334.9,322.5H331c-11.1,1-19.8,10.3-19.8,21.6c0,12,9.7,21.7,21.7,21.7s21.7-9.7,21.7-21.7
			C354.7,332.8,346,323.5,334.9,322.5z"/>
		<path class="st7" d="M342.1,329.3c2.6,1.6,4.7,3.8,6.1,6.4"/>
		<path class="st7" d="M326.1,328c2.1-0.9,4.4-1.4,6.9-1.4c1.8,0,3.5,0.3,5.1,0.8"/>
		<path class="st7" d="M317.4,336.1c1.3-2.4,3.1-4.5,5.3-6.1"/>
		<path class="st7" d="M323.3,358.8c-4.7-3.1-7.9-8.5-7.9-14.6c0-0.5,0-1.1,0.1-1.6"/>
		<path class="st7" d="M338.3,360.8c-1.7,0.5-3.5,0.8-5.3,0.8c-2.4,0-4.8-0.5-6.9-1.4"/>
		<path class="st7" d="M350.2,341c0.2,1,0.3,2.1,0.3,3.2c0,6.6-3.7,12.4-9.2,15.4c-1,0.5-2,1-3,1.3l-0.2-0.6l-5.9-11.7l-6,11.7
			c-1-0.4-1.9-0.9-2.8-1.5c-0.6-4.2-7.5-15.8-7.8-16.2c0.2-2.3,0.9-4.5,1.9-6.4l7.9,17.1l4.5-9.1l-7.1-14.1c1-0.8,2.2-1.4,3.4-1.9
			l6.1,11.2l5.8-11.8c1.4,0.4,2.8,1.1,4.1,1.9l-7.5,14.4l4.8,8.8c0-4.5,8.8-16.8,8.8-16.8C349.2,337.3,349.8,339.1,350.2,341z"/>
	</g>
</g>
<text transform="matrix(1 0 0 1 312.3324 423)" class="st4 st9 st10">ROADTRIP</text>
</svg>
